<svg xmlns="http://www.w3.org/2000/svg" viewBox="0 0 960 560" role="img" aria-labelledby="title desc">
  <title id="title">Client service operating system</title>
  <desc id="desc">A professional service system diagram showing intake, strategy, coordination, and execution across client work.</desc>
  <defs>
    <linearGradient id="bg" x1="0" y1="0" x2="1" y2="1">
      <stop stop-color="#fffaf1"/>
      <stop offset=".62" stop-color="#dcebef"/>
      <stop offset="1" stop-color="#f4df9f"/>
    </linearGradient>
  </defs>
  <rect width="960" height="560" rx="28" fill="url(#bg)"/>
  <circle cx="776" cy="122" r="92" fill="#d5a84d" opacity=".26"/>
  <circle cx="184" cy="418" r="118" fill="#167e78" opacity=".12"/>
  <g stroke="rgba(18,63,53,.18)" stroke-width="2">
    <path d="M110 280h740M480 92v376"/>
    <path d="M250 150 710 410M710 150 250 410"/>
  </g>
  <g transform="translate(330 150)">
    <rect width="300" height="260" rx="28" fill="#123f35"/>
    <rect x="28" y="34" width="244" height="36" rx="12" fill="#fffaf1"/>
    <rect x="28" y="96" width="244" height="120" rx="18" fill="#167e78"/>
    <path d="M60 180c42-58 78-72 118-40 32 26 54 20 84-28" fill="none" stroke="#f4df9f" stroke-width="8" stroke-linecap="round"/>
    <circle cx="84" cy="142" r="11" fill="#fffaf1"/>
    <circle cx="180" cy="140" r="11" fill="#fffaf1"/>
    <circle cx="232" cy="106" r="11" fill="#fffaf1"/>
  </g>
  <g font-family="Avenir Next, Arial, sans-serif" font-weight="800" fill="#123f35">
    <g transform="translate(96 104)">
      <rect width="194" height="84" rx="18" fill="#fffaf1" stroke="rgba(21,33,31,.16)" stroke-width="3"/>
      <text x="28" y="50" font-size="22">Intake</text>
    </g>
    <g transform="translate(670 104)">
      <rect width="194" height="84" rx="18" fill="#fffaf1" stroke="rgba(21,33,31,.16)" stroke-width="3"/>
      <text x="28" y="50" font-size="22">Strategy</text>
    </g>
    <g transform="translate(96 372)">
      <rect width="194" height="84" rx="18" fill="#fffaf1" stroke="rgba(21,33,31,.16)" stroke-width="3"/>
      <text x="28" y="50" font-size="22">Coordination</text>
    </g>
    <g transform="translate(670 372)">
      <rect width="194" height="84" rx="18" fill="#fffaf1" stroke="rgba(21,33,31,.16)" stroke-width="3"/>
      <text x="28" y="50" font-size="22">Execution</text>
    </g>
  </g>
</svg>
