<svg xmlns="http://www.w3.org/2000/svg" viewBox="0 0 960 560" role="img" aria-labelledby="title desc">
  <title id="title">Mobile app product capability system</title>
  <desc id="desc">A stylized mobile product workbench showing product strategy, UI UX, development, and launch planning.</desc>
  <defs>
    <linearGradient id="screen" x1="0" y1="0" x2="1" y2="1">
      <stop stop-color="#123f35"/>
      <stop offset=".58" stop-color="#167e78"/>
      <stop offset="1" stop-color="#d5a84d"/>
    </linearGradient>
    <pattern id="dots" width="30" height="30" patternUnits="userSpaceOnUse">
      <circle cx="3" cy="3" r="2" fill="rgba(21,33,31,.16)"/>
    </pattern>
  </defs>
  <rect width="960" height="560" rx="28" fill="#f6f2ea"/>
  <rect width="960" height="560" fill="url(#dots)"/>
  <rect x="82" y="78" width="796" height="404" rx="26" fill="#fffaf1" stroke="rgba(21,33,31,.16)" stroke-width="4"/>
  <rect x="132" y="122" width="236" height="324" rx="34" fill="#10231f"/>
  <rect x="152" y="150" width="196" height="258" rx="18" fill="url(#screen)"/>
  <rect x="198" y="424" width="104" height="8" rx="4" fill="#8fa29c"/>
  <g fill="#fffaf1">
    <rect x="178" y="184" width="96" height="12" rx="6"/>
    <rect x="178" y="218" width="142" height="46" rx="12" opacity=".9"/>
    <rect x="178" y="288" width="122" height="12" rx="6" opacity=".72"/>
    <rect x="178" y="318" width="86" height="12" rx="6" opacity=".72"/>
  </g>
  <g transform="translate(430 136)">
    <rect width="178" height="92" rx="16" fill="#dcebef"/>
    <path d="M30 63c22-28 47-32 74-12s52 14 76-18" fill="none" stroke="#167e78" stroke-width="7" stroke-linecap="round"/>
    <text x="28" y="34" fill="#123f35" font-family="Avenir Next, Arial, sans-serif" font-size="18" font-weight="800">Strategy</text>
  </g>
  <g transform="translate(662 136)">
    <rect width="178" height="92" rx="16" fill="#f4df9f"/>
    <rect x="28" y="42" width="42" height="28" rx="8" fill="#b65f32"/>
    <rect x="84" y="42" width="62" height="28" rx="8" fill="#123f35"/>
    <text x="28" y="34" fill="#123f35" font-family="Avenir Next, Arial, sans-serif" font-size="18" font-weight="800">UI/UX</text>
  </g>
  <g transform="translate(430 302)">
    <rect width="178" height="92" rx="16" fill="#e8eee9"/>
    <path d="m48 58-20-18 20-18M130 22l20 18-20 18" fill="none" stroke="#123f35" stroke-width="7" stroke-linecap="round" stroke-linejoin="round"/>
    <text x="28" y="34" fill="#123f35" font-family="Avenir Next, Arial, sans-serif" font-size="18" font-weight="800">Build</text>
  </g>
  <g transform="translate(662 302)">
    <rect width="178" height="92" rx="16" fill="#f7e5d8"/>
    <circle cx="54" cy="54" r="20" fill="#b65f32"/>
    <path d="M92 58h56" stroke="#123f35" stroke-width="8" stroke-linecap="round"/>
    <text x="28" y="34" fill="#123f35" font-family="Avenir Next, Arial, sans-serif" font-size="18" font-weight="800">Launch</text>
  </g>
  <path d="M368 284h52M608 182h54M608 348h54" stroke="#d5a84d" stroke-width="7" stroke-linecap="round"/>
</svg>
